<mxfile host="app.diagrams.net" agent="Mozilla/5.0 (iPhone; CPU iPhone OS 16_7 like Mac OS X) AppleWebKit/605.1.15 (KHTML, like Gecko) CriOS/127.0.6533.107 Mobile/15E148 Safari/604.1" version="25.0.1">
  <diagram name="商品交付" id="L4nsPfr7lbzzOXQsHiM5">
    <mxGraphModel dx="159" dy="885" grid="0" gridSize="10" guides="1" tooltips="1" connect="1" arrows="1" fold="1" page="0" pageScale="1" pageWidth="827" pageHeight="1169" math="0" shadow="0">
      <root>
        <mxCell id="0" />
        <mxCell id="1" parent="0" />
        <mxCell id="3xuslhSYQbHpbyFiAoC2-4" value="" style="edgeStyle=none;curved=1;rounded=0;orthogonalLoop=1;jettySize=auto;html=1;fontSize=12;startSize=8;endSize=8;" edge="1" parent="1" source="3xuslhSYQbHpbyFiAoC2-1" target="3xuslhSYQbHpbyFiAoC2-3">
          <mxGeometry relative="1" as="geometry" />
        </mxCell>
        <mxCell id="3xuslhSYQbHpbyFiAoC2-5" value="个人实名&lt;div&gt;预存费用&lt;/div&gt;&lt;div&gt;查用量&lt;/div&gt;&lt;div&gt;更改方案&lt;/div&gt;" style="edgeLabel;html=1;align=center;verticalAlign=middle;resizable=0;points=[];fontSize=12;" vertex="1" connectable="0" parent="3xuslhSYQbHpbyFiAoC2-4">
          <mxGeometry x="0.1532" y="-3" relative="1" as="geometry">
            <mxPoint as="offset" />
          </mxGeometry>
        </mxCell>
        <mxCell id="3xuslhSYQbHpbyFiAoC2-7" style="edgeStyle=none;curved=1;rounded=0;orthogonalLoop=1;jettySize=auto;html=1;entryX=0;entryY=0.5;entryDx=0;entryDy=0;fontSize=12;startSize=8;endSize=8;" edge="1" parent="1" source="3xuslhSYQbHpbyFiAoC2-1" target="3xuslhSYQbHpbyFiAoC2-6">
          <mxGeometry relative="1" as="geometry" />
        </mxCell>
        <mxCell id="3xuslhSYQbHpbyFiAoC2-8" value="激活问题&lt;div&gt;故障问题&lt;/div&gt;&lt;div&gt;产品咨询&lt;/div&gt;" style="edgeLabel;html=1;align=center;verticalAlign=middle;resizable=0;points=[];fontSize=12;" vertex="1" connectable="0" parent="3xuslhSYQbHpbyFiAoC2-7">
          <mxGeometry x="-0.0937" y="-2" relative="1" as="geometry">
            <mxPoint as="offset" />
          </mxGeometry>
        </mxCell>
        <mxCell id="3xuslhSYQbHpbyFiAoC2-1" value="消费者" style="shape=actor;whiteSpace=wrap;html=1;movable=1;resizable=1;rotatable=1;deletable=1;editable=1;locked=0;connectable=1;" vertex="1" parent="1">
          <mxGeometry x="237" y="70" width="40" height="60" as="geometry" />
        </mxCell>
        <mxCell id="3xuslhSYQbHpbyFiAoC2-2" value="mifi" style="ellipse;whiteSpace=wrap;html=1;aspect=fixed;" vertex="1" parent="1">
          <mxGeometry x="157" y="-41" width="80" height="80" as="geometry" />
        </mxCell>
        <mxCell id="3xuslhSYQbHpbyFiAoC2-3" value="小程序" style="ellipse;whiteSpace=wrap;html=1;aspect=fixed;" vertex="1" parent="1">
          <mxGeometry x="388" y="60" width="80" height="80" as="geometry" />
        </mxCell>
        <mxCell id="3xuslhSYQbHpbyFiAoC2-6" value="小程序客服" style="ellipse;whiteSpace=wrap;html=1;aspect=fixed;" vertex="1" parent="1">
          <mxGeometry x="382" y="179" width="80" height="80" as="geometry" />
        </mxCell>
      </root>
    </mxGraphModel>
  </diagram>
</mxfile>
